<svg width="754" height="277" viewBox="0 0 754 277" fill="none" xmlns="http://www.w3.org/2000/svg">
<rect width="754" height="277" fill="white"/>
<path d="M70 105V101M70 101H216M70 101V97M216 101V105M216 101V97" stroke="#CED6DE" stroke-linecap="round" stroke-linejoin="round"/>
<path d="M143 101L143 93" stroke="#CED6DE" stroke-linecap="round" stroke-linejoin="round"/>
<circle cx="143" cy="101" r="2.5" fill="white" stroke="#CED6DE"/>
<path d="M121.281 63.428V66.32H124.497V67.16H121.281V70.112H124.857V71H120.189V62.54H124.857V63.428H121.281ZM129.727 64.304C130.495 64.304 131.115 64.552 131.587 65.048C132.059 65.536 132.295 66.244 132.295 67.172V71H131.203V67.268C131.203 66.612 131.035 66.108 130.699 65.756C130.363 65.404 129.907 65.228 129.331 65.228C128.731 65.228 128.251 65.424 127.891 65.816C127.531 66.2 127.351 66.764 127.351 67.508V71H126.259V64.412H127.351V65.972C127.519 65.436 127.815 65.024 128.239 64.736C128.671 64.448 129.167 64.304 129.727 64.304ZM136.67 64.328C137.31 64.328 137.85 64.488 138.29 64.808C138.738 65.128 139.05 65.556 139.226 66.092V64.412H140.318V71H139.226V69.32C139.05 69.856 138.738 70.284 138.29 70.604C137.85 70.924 137.31 71.084 136.67 71.084C136.086 71.084 135.566 70.948 135.11 70.676C134.654 70.404 134.294 70.016 134.03 69.512C133.774 69 133.646 68.4 133.646 67.712C133.646 67.024 133.774 66.424 134.03 65.912C134.294 65.4 134.654 65.008 135.11 64.736C135.566 64.464 136.086 64.328 136.67 64.328ZM136.982 65.3C136.31 65.3 135.77 65.516 135.362 65.948C134.962 66.372 134.762 66.96 134.762 67.712C134.762 68.464 134.962 69.056 135.362 69.488C135.77 69.912 136.31 70.124 136.982 70.124C137.414 70.124 137.798 70.024 138.134 69.824C138.478 69.624 138.746 69.344 138.938 68.984C139.13 68.616 139.226 68.192 139.226 67.712C139.226 67.232 139.13 66.808 138.938 66.44C138.746 66.072 138.478 65.792 138.134 65.6C137.798 65.4 137.414 65.3 136.982 65.3ZM145.692 64.328C146.276 64.328 146.796 64.464 147.252 64.736C147.708 65.008 148.064 65.4 148.32 65.912C148.584 66.424 148.716 67.024 148.716 67.712C148.716 68.4 148.584 69 148.32 69.512C148.064 70.016 147.708 70.404 147.252 70.676C146.796 70.948 146.276 71.084 145.692 71.084C145.052 71.084 144.508 70.924 144.06 70.604C143.62 70.276 143.316 69.848 143.148 69.32V71H142.056V62.12H143.148V66.092C143.316 65.564 143.62 65.14 144.06 64.82C144.508 64.492 145.052 64.328 145.692 64.328ZM145.38 65.3C144.956 65.3 144.572 65.4 144.228 65.6C143.884 65.792 143.616 66.072 143.424 66.44C143.232 66.808 143.136 67.232 143.136 67.712C143.136 68.192 143.232 68.616 143.424 68.984C143.616 69.344 143.884 69.624 144.228 69.824C144.572 70.024 144.956 70.124 145.38 70.124C146.06 70.124 146.6 69.912 147 69.488C147.408 69.056 147.612 68.464 147.612 67.712C147.612 66.96 147.408 66.372 147 65.948C146.6 65.516 146.06 65.3 145.38 65.3ZM151.234 62.12V71H150.142V62.12H151.234ZM159.049 67.34C159.049 67.572 159.033 67.772 159.001 67.94H153.733C153.757 68.692 153.969 69.256 154.369 69.632C154.777 70.008 155.273 70.196 155.857 70.196C156.385 70.196 156.825 70.064 157.177 69.8C157.537 69.528 157.757 69.168 157.837 68.72H159.001C158.921 69.176 158.741 69.584 158.461 69.944C158.189 70.304 157.833 70.584 157.393 70.784C156.953 70.984 156.457 71.084 155.905 71.084C155.273 71.084 154.713 70.948 154.225 70.676C153.737 70.404 153.353 70.016 153.073 69.512C152.801 69 152.665 68.4 152.665 67.712C152.665 67.024 152.801 66.424 153.073 65.912C153.353 65.4 153.737 65.008 154.225 64.736C154.713 64.464 155.273 64.328 155.905 64.328C156.545 64.328 157.101 64.464 157.573 64.736C158.053 65.008 158.417 65.372 158.665 65.828C158.921 66.284 159.049 66.788 159.049 67.34ZM157.945 67.412C157.969 66.924 157.889 66.516 157.705 66.188C157.521 65.86 157.269 65.616 156.949 65.456C156.629 65.296 156.281 65.216 155.905 65.216C155.305 65.216 154.801 65.404 154.393 65.78C153.985 66.148 153.765 66.692 153.733 67.412H157.945ZM163.178 64.328C163.818 64.328 164.358 64.488 164.798 64.808C165.246 65.128 165.558 65.556 165.734 66.092V62.12H166.826V71H165.734V69.32C165.558 69.856 165.246 70.284 164.798 70.604C164.358 70.924 163.818 71.084 163.178 71.084C162.594 71.084 162.074 70.948 161.618 70.676C161.162 70.404 160.802 70.016 160.538 69.512C160.282 69 160.154 68.4 160.154 67.712C160.154 67.024 160.282 66.424 160.538 65.912C160.802 65.4 161.162 65.008 161.618 64.736C162.074 64.464 162.594 64.328 163.178 64.328ZM163.49 65.3C162.818 65.3 162.278 65.516 161.87 65.948C161.47 66.372 161.27 66.96 161.27 67.712C161.27 68.464 161.47 69.056 161.87 69.488C162.278 69.912 162.818 70.124 163.49 70.124C163.922 70.124 164.306 70.024 164.642 69.824C164.986 69.624 165.254 69.344 165.446 68.984C165.638 68.616 165.734 68.192 165.734 67.712C165.734 67.232 165.638 66.808 165.446 66.44C165.254 66.072 164.986 65.792 164.642 65.6C164.306 65.4 163.922 65.3 163.49 65.3Z" fill="#505F79"/>
<path d="M225 105V101M225 101H371M225 101V97M371 101V105M371 101V97" stroke="#CED6DE" stroke-linecap="round" stroke-linejoin="round"/>
<path d="M298 101L298 93" stroke="#CED6DE" stroke-linecap="round" stroke-linejoin="round"/>
<circle cx="298" cy="101" r="2.5" fill="white" stroke="#CED6DE"/>
<path d="M288.425 62.54V71H287.321V67.088H283.025V71H281.933V62.54H283.025V66.2H287.321V62.54H288.425ZM293.159 64.328C293.791 64.328 294.355 64.464 294.851 64.736C295.355 65.008 295.747 65.4 296.027 65.912C296.315 66.424 296.459 67.024 296.459 67.712C296.459 68.4 296.315 69 296.027 69.512C295.747 70.016 295.355 70.404 294.851 70.676C294.355 70.948 293.791 71.084 293.159 71.084C292.527 71.084 291.959 70.948 291.455 70.676C290.959 70.404 290.567 70.016 290.279 69.512C289.991 69 289.847 68.4 289.847 67.712C289.847 67.024 289.991 66.424 290.279 65.912C290.567 65.4 290.959 65.008 291.455 64.736C291.959 64.464 292.527 64.328 293.159 64.328ZM293.159 65.288C292.767 65.288 292.403 65.376 292.067 65.552C291.739 65.728 291.471 66 291.263 66.368C291.063 66.728 290.963 67.176 290.963 67.712C290.963 68.24 291.063 68.688 291.263 69.056C291.471 69.416 291.739 69.684 292.067 69.86C292.403 70.036 292.767 70.124 293.159 70.124C293.551 70.124 293.911 70.036 294.239 69.86C294.575 69.684 294.843 69.416 295.043 69.056C295.251 68.688 295.355 68.24 295.355 67.712C295.355 67.176 295.251 66.728 295.043 66.368C294.843 66 294.575 65.728 294.239 65.552C293.911 65.376 293.551 65.288 293.159 65.288ZM300.438 69.836L302.478 64.412H303.654L301.074 71H299.778L297.198 64.412H298.374L300.438 69.836ZM310.786 67.34C310.786 67.572 310.77 67.772 310.738 67.94H305.47C305.494 68.692 305.706 69.256 306.106 69.632C306.514 70.008 307.01 70.196 307.594 70.196C308.122 70.196 308.562 70.064 308.914 69.8C309.274 69.528 309.494 69.168 309.574 68.72H310.738C310.658 69.176 310.478 69.584 310.198 69.944C309.926 70.304 309.57 70.584 309.13 70.784C308.69 70.984 308.194 71.084 307.642 71.084C307.01 71.084 306.45 70.948 305.962 70.676C305.474 70.404 305.09 70.016 304.81 69.512C304.538 69 304.402 68.4 304.402 67.712C304.402 67.024 304.538 66.424 304.81 65.912C305.09 65.4 305.474 65.008 305.962 64.736C306.45 64.464 307.01 64.328 307.642 64.328C308.282 64.328 308.838 64.464 309.31 64.736C309.79 65.008 310.154 65.372 310.402 65.828C310.658 66.284 310.786 66.788 310.786 67.34ZM309.682 67.412C309.706 66.924 309.626 66.516 309.442 66.188C309.258 65.86 309.006 65.616 308.686 65.456C308.366 65.296 308.018 65.216 307.642 65.216C307.042 65.216 306.538 65.404 306.13 65.78C305.722 66.148 305.502 66.692 305.47 67.412H309.682ZM313.306 65.744C313.522 65.288 313.838 64.936 314.254 64.688C314.67 64.432 315.166 64.304 315.742 64.304V65.492H315.406C314.79 65.492 314.286 65.652 313.894 65.972C313.502 66.284 313.306 66.804 313.306 67.532V71H312.214V64.412H313.306V65.744Z" fill="#505F79"/>
<path d="M380 105V101M380 101H526M380 101V97M526 101V105M526 101V97" stroke="#CED6DE" stroke-linecap="round" stroke-linejoin="round"/>
<path d="M453 101L453 93" stroke="#CED6DE" stroke-linecap="round" stroke-linejoin="round"/>
<circle cx="453" cy="101" r="2.5" fill="white" stroke="#CED6DE"/>
<path d="M432.007 67.592V71H430.915V62.54H433.603C434.571 62.54 435.295 62.768 435.775 63.224C436.255 63.672 436.495 64.288 436.495 65.072C436.495 65.864 436.247 66.484 435.751 66.932C435.255 67.372 434.539 67.592 433.603 67.592H432.007ZM433.507 66.68C434.171 66.68 434.647 66.54 434.935 66.26C435.231 65.98 435.379 65.584 435.379 65.072C435.379 64.544 435.231 64.144 434.935 63.872C434.647 63.592 434.171 63.452 433.507 63.452H432.007V66.68H433.507ZM438.863 65.744C439.079 65.288 439.395 64.936 439.811 64.688C440.227 64.432 440.723 64.304 441.299 64.304V65.492H440.963C440.347 65.492 439.843 65.652 439.451 65.972C439.059 66.284 438.863 66.804 438.863 67.532V71H437.771V64.412H438.863V65.744ZM448.436 67.34C448.436 67.572 448.42 67.772 448.388 67.94H443.12C443.144 68.692 443.356 69.256 443.756 69.632C444.164 70.008 444.66 70.196 445.244 70.196C445.772 70.196 446.212 70.064 446.564 69.8C446.924 69.528 447.144 69.168 447.224 68.72H448.388C448.308 69.176 448.128 69.584 447.848 69.944C447.576 70.304 447.22 70.584 446.78 70.784C446.34 70.984 445.844 71.084 445.292 71.084C444.66 71.084 444.1 70.948 443.612 70.676C443.124 70.404 442.74 70.016 442.46 69.512C442.188 69 442.052 68.4 442.052 67.712C442.052 67.024 442.188 66.424 442.46 65.912C442.74 65.4 443.124 65.008 443.612 64.736C444.1 64.464 444.66 64.328 445.292 64.328C445.932 64.328 446.488 64.464 446.96 64.736C447.44 65.008 447.804 65.372 448.052 65.828C448.308 66.284 448.436 66.788 448.436 67.34ZM447.332 67.412C447.356 66.924 447.276 66.516 447.092 66.188C446.908 65.86 446.656 65.616 446.336 65.456C446.016 65.296 445.668 65.216 445.292 65.216C444.692 65.216 444.188 65.404 443.78 65.78C443.372 66.148 443.152 66.692 443.12 67.412H447.332ZM451.928 64.328C452.672 64.328 453.268 64.524 453.716 64.916C454.172 65.3 454.448 65.82 454.544 66.476H453.5C453.452 66.084 453.288 65.764 453.008 65.516C452.736 65.26 452.368 65.132 451.904 65.132C451.512 65.132 451.204 65.228 450.98 65.42C450.764 65.604 450.656 65.856 450.656 66.176C450.656 66.416 450.728 66.612 450.872 66.764C451.024 66.908 451.208 67.02 451.424 67.1C451.648 67.172 451.952 67.252 452.336 67.34C452.824 67.452 453.216 67.568 453.512 67.688C453.816 67.8 454.072 67.984 454.28 68.24C454.496 68.496 454.604 68.84 454.604 69.272C454.604 69.808 454.4 70.244 453.992 70.58C453.592 70.916 453.056 71.084 452.384 71.084C451.6 71.084 450.96 70.896 450.464 70.52C449.968 70.144 449.676 69.62 449.588 68.948H450.644C450.684 69.348 450.856 69.672 451.16 69.92C451.472 70.168 451.88 70.292 452.384 70.292C452.76 70.292 453.052 70.196 453.26 70.004C453.476 69.812 453.584 69.56 453.584 69.248C453.584 68.992 453.508 68.788 453.356 68.636C453.204 68.484 453.016 68.368 452.792 68.288C452.568 68.208 452.26 68.124 451.868 68.036C451.38 67.924 450.988 67.812 450.692 67.7C450.404 67.588 450.156 67.412 449.948 67.172C449.748 66.924 449.648 66.592 449.648 66.176C449.648 65.624 449.852 65.18 450.26 64.844C450.668 64.5 451.224 64.328 451.928 64.328ZM458.128 64.328C458.872 64.328 459.468 64.524 459.916 64.916C460.372 65.3 460.648 65.82 460.744 66.476H459.7C459.652 66.084 459.488 65.764 459.208 65.516C458.936 65.26 458.568 65.132 458.104 65.132C457.712 65.132 457.404 65.228 457.18 65.42C456.964 65.604 456.856 65.856 456.856 66.176C456.856 66.416 456.928 66.612 457.072 66.764C457.224 66.908 457.408 67.02 457.624 67.1C457.848 67.172 458.152 67.252 458.536 67.34C459.024 67.452 459.416 67.568 459.712 67.688C460.016 67.8 460.272 67.984 460.48 68.24C460.696 68.496 460.804 68.84 460.804 69.272C460.804 69.808 460.6 70.244 460.192 70.58C459.792 70.916 459.256 71.084 458.584 71.084C457.8 71.084 457.16 70.896 456.664 70.52C456.168 70.144 455.876 69.62 455.788 68.948H456.844C456.884 69.348 457.056 69.672 457.36 69.92C457.672 70.168 458.08 70.292 458.584 70.292C458.96 70.292 459.252 70.196 459.46 70.004C459.676 69.812 459.784 69.56 459.784 69.248C459.784 68.992 459.708 68.788 459.556 68.636C459.404 68.484 459.216 68.368 458.992 68.288C458.768 68.208 458.46 68.124 458.068 68.036C457.58 67.924 457.188 67.812 456.892 67.7C456.604 67.588 456.356 67.412 456.148 67.172C455.948 66.924 455.848 66.592 455.848 66.176C455.848 65.624 456.052 65.18 456.46 64.844C456.868 64.5 457.424 64.328 458.128 64.328ZM468.323 67.34C468.323 67.572 468.307 67.772 468.275 67.94H463.007C463.031 68.692 463.243 69.256 463.643 69.632C464.051 70.008 464.547 70.196 465.131 70.196C465.659 70.196 466.099 70.064 466.451 69.8C466.811 69.528 467.031 69.168 467.111 68.72H468.275C468.195 69.176 468.015 69.584 467.735 69.944C467.463 70.304 467.107 70.584 466.667 70.784C466.227 70.984 465.731 71.084 465.179 71.084C464.547 71.084 463.987 70.948 463.499 70.676C463.011 70.404 462.627 70.016 462.347 69.512C462.075 69 461.939 68.4 461.939 67.712C461.939 67.024 462.075 66.424 462.347 65.912C462.627 65.4 463.011 65.008 463.499 64.736C463.987 64.464 464.547 64.328 465.179 64.328C465.819 64.328 466.375 64.464 466.847 64.736C467.327 65.008 467.691 65.372 467.939 65.828C468.195 66.284 468.323 66.788 468.323 67.34ZM467.219 67.412C467.243 66.924 467.163 66.516 466.979 66.188C466.795 65.86 466.543 65.616 466.223 65.456C465.903 65.296 465.555 65.216 465.179 65.216C464.579 65.216 464.075 65.404 463.667 65.78C463.259 66.148 463.039 66.692 463.007 67.412H467.219ZM472.451 64.328C473.091 64.328 473.631 64.488 474.071 64.808C474.519 65.128 474.831 65.556 475.007 66.092V62.12H476.099V71H475.007V69.32C474.831 69.856 474.519 70.284 474.071 70.604C473.631 70.924 473.091 71.084 472.451 71.084C471.867 71.084 471.347 70.948 470.891 70.676C470.435 70.404 470.075 70.016 469.811 69.512C469.555 69 469.427 68.4 469.427 67.712C469.427 67.024 469.555 66.424 469.811 65.912C470.075 65.4 470.435 65.008 470.891 64.736C471.347 64.464 471.867 64.328 472.451 64.328ZM472.763 65.3C472.091 65.3 471.551 65.516 471.143 65.948C470.743 66.372 470.543 66.96 470.543 67.712C470.543 68.464 470.743 69.056 471.143 69.488C471.551 69.912 472.091 70.124 472.763 70.124C473.195 70.124 473.579 70.024 473.915 69.824C474.259 69.624 474.527 69.344 474.719 68.984C474.911 68.616 475.007 68.192 475.007 67.712C475.007 67.232 474.911 66.808 474.719 66.44C474.527 66.072 474.259 65.792 473.915 65.6C473.579 65.4 473.195 65.3 472.763 65.3Z" fill="#505F79"/>
<path d="M538 105V101M538 101H684M538 101V97M684 101V105M684 101V97" stroke="#CED6DE" stroke-linecap="round" stroke-linejoin="round"/>
<path d="M611 101L611 93" stroke="#CED6DE" stroke-linecap="round" stroke-linejoin="round"/>
<circle cx="611" cy="101" r="2.5" fill="white" stroke="#CED6DE"/>
<path d="M593.383 66.764C593.383 67.62 593.211 68.368 592.867 69.008C592.523 69.64 592.015 70.132 591.343 70.484C590.679 70.828 589.879 71 588.943 71H586.255V62.54H588.943C589.879 62.54 590.679 62.712 591.343 63.056C592.015 63.392 592.523 63.88 592.867 64.52C593.211 65.152 593.383 65.9 593.383 66.764ZM588.859 70.016C589.963 70.016 590.807 69.732 591.391 69.164C591.975 68.596 592.267 67.796 592.267 66.764C592.267 65.732 591.975 64.932 591.391 64.364C590.815 63.788 589.971 63.5 588.859 63.5H587.347V70.016H588.859ZM594.664 62.48C594.664 62.28 594.732 62.12 594.868 62C595.004 61.872 595.184 61.808 595.408 61.808C595.632 61.808 595.812 61.872 595.948 62C596.084 62.12 596.152 62.28 596.152 62.48C596.152 62.68 596.084 62.844 595.948 62.972C595.812 63.092 595.632 63.152 595.408 63.152C595.184 63.152 595.004 63.092 594.868 62.972C594.732 62.844 594.664 62.68 594.664 62.48ZM595.948 64.412V71H594.856V64.412H595.948ZM599.768 64.328C600.512 64.328 601.108 64.524 601.556 64.916C602.012 65.3 602.288 65.82 602.384 66.476H601.34C601.292 66.084 601.128 65.764 600.848 65.516C600.576 65.26 600.208 65.132 599.744 65.132C599.352 65.132 599.044 65.228 598.82 65.42C598.604 65.604 598.496 65.856 598.496 66.176C598.496 66.416 598.568 66.612 598.712 66.764C598.864 66.908 599.048 67.02 599.264 67.1C599.488 67.172 599.792 67.252 600.176 67.34C600.664 67.452 601.056 67.568 601.352 67.688C601.656 67.8 601.912 67.984 602.12 68.24C602.336 68.496 602.444 68.84 602.444 69.272C602.444 69.808 602.24 70.244 601.832 70.58C601.432 70.916 600.896 71.084 600.224 71.084C599.44 71.084 598.8 70.896 598.304 70.52C597.808 70.144 597.516 69.62 597.428 68.948H598.484C598.524 69.348 598.696 69.672 599 69.92C599.312 70.168 599.72 70.292 600.224 70.292C600.6 70.292 600.892 70.196 601.1 70.004C601.316 69.812 601.424 69.56 601.424 69.248C601.424 68.992 601.348 68.788 601.196 68.636C601.044 68.484 600.856 68.368 600.632 68.288C600.408 68.208 600.1 68.124 599.708 68.036C599.22 67.924 598.828 67.812 598.532 67.7C598.244 67.588 597.996 67.412 597.788 67.172C597.588 66.924 597.488 66.592 597.488 66.176C597.488 65.624 597.692 65.18 598.1 64.844C598.508 64.5 599.064 64.328 599.768 64.328ZM606.603 64.328C607.243 64.328 607.783 64.488 608.223 64.808C608.671 65.128 608.983 65.556 609.159 66.092V64.412H610.251V71H609.159V69.32C608.983 69.856 608.671 70.284 608.223 70.604C607.783 70.924 607.243 71.084 606.603 71.084C606.019 71.084 605.499 70.948 605.043 70.676C604.587 70.404 604.227 70.016 603.963 69.512C603.707 69 603.579 68.4 603.579 67.712C603.579 67.024 603.707 66.424 603.963 65.912C604.227 65.4 604.587 65.008 605.043 64.736C605.499 64.464 606.019 64.328 606.603 64.328ZM606.915 65.3C606.243 65.3 605.703 65.516 605.295 65.948C604.895 66.372 604.695 66.96 604.695 67.712C604.695 68.464 604.895 69.056 605.295 69.488C605.703 69.912 606.243 70.124 606.915 70.124C607.347 70.124 607.731 70.024 608.067 69.824C608.411 69.624 608.679 69.344 608.871 68.984C609.063 68.616 609.159 68.192 609.159 67.712C609.159 67.232 609.063 66.808 608.871 66.44C608.679 66.072 608.411 65.792 608.067 65.6C607.731 65.4 607.347 65.3 606.915 65.3ZM615.625 64.328C616.209 64.328 616.729 64.464 617.185 64.736C617.641 65.008 617.997 65.4 618.253 65.912C618.517 66.424 618.649 67.024 618.649 67.712C618.649 68.4 618.517 69 618.253 69.512C617.997 70.016 617.641 70.404 617.185 70.676C616.729 70.948 616.209 71.084 615.625 71.084C614.985 71.084 614.441 70.924 613.993 70.604C613.553 70.276 613.249 69.848 613.081 69.32V71H611.989V62.12H613.081V66.092C613.249 65.564 613.553 65.14 613.993 64.82C614.441 64.492 614.985 64.328 615.625 64.328ZM615.313 65.3C614.889 65.3 614.505 65.4 614.161 65.6C613.817 65.792 613.549 66.072 613.357 66.44C613.165 66.808 613.069 67.232 613.069 67.712C613.069 68.192 613.165 68.616 613.357 68.984C613.549 69.344 613.817 69.624 614.161 69.824C614.505 70.024 614.889 70.124 615.313 70.124C615.993 70.124 616.533 69.912 616.933 69.488C617.341 69.056 617.545 68.464 617.545 67.712C617.545 66.96 617.341 66.372 616.933 65.948C616.533 65.516 615.993 65.3 615.313 65.3ZM621.167 62.12V71H620.075V62.12H621.167ZM628.983 67.34C628.983 67.572 628.967 67.772 628.935 67.94H623.667C623.691 68.692 623.903 69.256 624.303 69.632C624.711 70.008 625.207 70.196 625.791 70.196C626.319 70.196 626.759 70.064 627.111 69.8C627.471 69.528 627.691 69.168 627.771 68.72H628.935C628.855 69.176 628.675 69.584 628.395 69.944C628.123 70.304 627.767 70.584 627.327 70.784C626.887 70.984 626.391 71.084 625.839 71.084C625.207 71.084 624.647 70.948 624.159 70.676C623.671 70.404 623.287 70.016 623.007 69.512C622.735 69 622.599 68.4 622.599 67.712C622.599 67.024 622.735 66.424 623.007 65.912C623.287 65.4 623.671 65.008 624.159 64.736C624.647 64.464 625.207 64.328 625.839 64.328C626.479 64.328 627.035 64.464 627.507 64.736C627.987 65.008 628.351 65.372 628.599 65.828C628.855 66.284 628.983 66.788 628.983 67.34ZM627.879 67.412C627.903 66.924 627.823 66.516 627.639 66.188C627.455 65.86 627.203 65.616 626.883 65.456C626.563 65.296 626.215 65.216 625.839 65.216C625.239 65.216 624.735 65.404 624.327 65.78C623.919 66.148 623.699 66.692 623.667 67.412H627.879ZM633.111 64.328C633.751 64.328 634.291 64.488 634.731 64.808C635.179 65.128 635.491 65.556 635.667 66.092V62.12H636.759V71H635.667V69.32C635.491 69.856 635.179 70.284 634.731 70.604C634.291 70.924 633.751 71.084 633.111 71.084C632.527 71.084 632.007 70.948 631.551 70.676C631.095 70.404 630.735 70.016 630.471 69.512C630.215 69 630.087 68.4 630.087 67.712C630.087 67.024 630.215 66.424 630.471 65.912C630.735 65.4 631.095 65.008 631.551 64.736C632.007 64.464 632.527 64.328 633.111 64.328ZM633.423 65.3C632.751 65.3 632.211 65.516 631.803 65.948C631.403 66.372 631.203 66.96 631.203 67.712C631.203 68.464 631.403 69.056 631.803 69.488C632.211 69.912 632.751 70.124 633.423 70.124C633.855 70.124 634.239 70.024 634.575 69.824C634.919 69.624 635.187 69.344 635.379 68.984C635.571 68.616 635.667 68.192 635.667 67.712C635.667 67.232 635.571 66.808 635.379 66.44C635.187 66.072 634.919 65.792 634.575 65.6C634.239 65.4 633.855 65.3 633.423 65.3Z" fill="#505F79"/>
<path d="M100 180C100 175.582 103.582 172 108 172H185C189.418 172 193 175.582 193 180V212C193 216.418 189.418 220 185 220H108C103.582 220 100 216.418 100 212V180Z" fill="white"/>
<path d="M119.644 195.812C120.369 195.959 120.953 196.305 121.395 196.849C121.848 197.393 122.075 198.028 122.075 198.753C122.075 199.75 121.741 200.544 121.072 201.133C120.403 201.711 119.434 202 118.165 202H113.388V189.998H118.08C119.281 189.998 120.199 190.27 120.834 190.814C121.48 191.347 121.803 192.083 121.803 193.024C121.803 193.783 121.605 194.401 121.208 194.877C120.811 195.342 120.29 195.653 119.644 195.812ZM115.326 195.166H117.723C118.403 195.166 118.919 195.007 119.27 194.69C119.633 194.373 119.814 193.931 119.814 193.364C119.814 192.809 119.633 192.372 119.27 192.055C118.919 191.738 118.38 191.579 117.655 191.579H115.326V195.166ZM117.774 200.402C118.511 200.402 119.077 200.238 119.474 199.909C119.882 199.569 120.086 199.099 120.086 198.498C120.086 197.897 119.882 197.427 119.474 197.087C119.066 196.747 118.494 196.577 117.757 196.577H115.326V200.402H117.774ZM133.043 192.633V202H131.088V199.96C130.85 200.651 130.436 201.19 129.847 201.575C129.258 201.949 128.572 202.136 127.79 202.136C126.702 202.136 125.829 201.785 125.172 201.082C124.515 200.379 124.186 199.376 124.186 198.073V192.633H126.124V197.869C126.124 198.719 126.339 199.376 126.77 199.841C127.201 200.294 127.79 200.521 128.538 200.521C129.309 200.521 129.926 200.272 130.391 199.773C130.856 199.274 131.088 198.549 131.088 197.597V192.633H133.043ZM140.583 200.317V202H139.393C138.396 202 137.636 201.762 137.115 201.286C136.605 200.799 136.35 199.994 136.35 198.872V194.282H135.007V192.633H136.35V190.304H138.305V192.633H140.566V194.282H138.305V198.906C138.305 199.439 138.401 199.807 138.594 200.011C138.798 200.215 139.149 200.317 139.648 200.317H140.583ZM147.617 200.317V202H146.427C145.43 202 144.671 201.762 144.149 201.286C143.639 200.799 143.384 199.994 143.384 198.872V194.282H142.041V192.633H143.384V190.304H145.339V192.633H147.6V194.282H145.339V198.906C145.339 199.439 145.436 199.807 145.628 200.011C145.832 200.215 146.184 200.317 146.682 200.317H147.617ZM154.227 192.514C155.133 192.514 155.949 192.707 156.675 193.092C157.4 193.477 157.967 194.033 158.375 194.758C158.783 195.483 158.987 196.333 158.987 197.308C158.987 198.294 158.783 199.15 158.375 199.875C157.967 200.6 157.4 201.156 156.675 201.541C155.949 201.926 155.133 202.119 154.227 202.119C153.32 202.119 152.504 201.926 151.779 201.541C151.065 201.156 150.498 200.6 150.079 199.875C149.671 199.138 149.467 198.283 149.467 197.308C149.467 196.333 149.671 195.483 150.079 194.758C150.498 194.033 151.065 193.477 151.779 193.092C152.504 192.707 153.32 192.514 154.227 192.514ZM154.227 194.197C153.728 194.197 153.269 194.31 152.85 194.537C152.43 194.764 152.09 195.115 151.83 195.591C151.58 196.056 151.456 196.628 151.456 197.308C151.456 197.999 151.58 198.577 151.83 199.042C152.09 199.507 152.43 199.852 152.85 200.079C153.269 200.306 153.728 200.419 154.227 200.419C154.725 200.419 155.184 200.306 155.604 200.079C156.023 199.852 156.357 199.507 156.607 199.042C156.867 198.577 156.998 197.999 156.998 197.308C156.998 196.628 156.867 196.056 156.607 195.591C156.357 195.115 156.023 194.764 155.604 194.537C155.184 194.31 154.725 194.197 154.227 194.197ZM166.596 192.48C167.684 192.48 168.557 192.831 169.214 193.534C169.871 194.237 170.2 195.24 170.2 196.543V202H168.262V196.747C168.262 195.908 168.047 195.262 167.616 194.809C167.185 194.344 166.596 194.112 165.848 194.112C165.077 194.112 164.46 194.361 163.995 194.86C163.53 195.347 163.298 196.067 163.298 197.019V202H161.36V192.633H163.298V194.69C163.547 193.987 163.967 193.443 164.556 193.058C165.145 192.673 165.825 192.48 166.596 192.48ZM176.053 192.514C177.153 192.514 178.031 192.797 178.688 193.364C179.357 193.919 179.765 194.667 179.912 195.608H178.076C177.997 195.098 177.776 194.69 177.413 194.384C177.062 194.067 176.592 193.908 176.002 193.908C175.515 193.908 175.135 194.027 174.863 194.265C174.603 194.492 174.472 194.803 174.472 195.2C174.472 195.495 174.569 195.733 174.761 195.914C174.954 196.095 175.192 196.237 175.475 196.339C175.77 196.441 176.184 196.554 176.716 196.679C177.419 196.838 177.986 197.002 178.416 197.172C178.858 197.342 179.232 197.614 179.538 197.988C179.856 198.351 180.014 198.849 180.014 199.484C180.014 200.266 179.714 200.901 179.113 201.388C178.524 201.875 177.725 202.119 176.716 202.119C175.549 202.119 174.603 201.847 173.877 201.303C173.163 200.759 172.733 200 172.585 199.025H174.472C174.529 199.535 174.756 199.949 175.152 200.266C175.549 200.583 176.07 200.742 176.716 200.742C177.181 200.742 177.544 200.623 177.804 200.385C178.076 200.136 178.212 199.824 178.212 199.45C178.212 199.121 178.11 198.861 177.906 198.668C177.702 198.475 177.447 198.328 177.141 198.226C176.835 198.113 176.416 197.999 175.883 197.886C175.203 197.727 174.648 197.569 174.217 197.41C173.798 197.251 173.435 196.996 173.129 196.645C172.835 196.282 172.687 195.795 172.687 195.183C172.687 194.39 172.982 193.749 173.571 193.262C174.172 192.763 174.999 192.514 176.053 192.514Z" fill="#6070FF"/>
<path d="M108 173H185V171H108V173ZM192 180V212H194V180H192ZM185 219H108V221H185V219ZM101 212V180H99V212H101ZM108 219C104.134 219 101 215.866 101 212H99C99 216.971 103.029 221 108 221V219ZM192 212C192 215.866 188.866 219 185 219V221C189.971 221 194 216.971 194 212H192ZM185 173C188.866 173 192 176.134 192 180H194C194 175.029 189.971 171 185 171V173ZM108 171C103.029 171 99 175.029 99 180H101C101 176.134 104.134 173 108 173V171Z" fill="#7F8CFF"/>
<g filter="url(#filter0_d_37_2238)">
<path d="M252 180C252 175.582 255.582 172 260 172H337C341.418 172 345 175.582 345 180V212C345 216.418 341.418 220 337 220H260C255.582 220 252 216.418 252 212V180Z" fill="#6070FF"/>
<path d="M271.644 195.812C272.369 195.959 272.953 196.305 273.395 196.849C273.848 197.393 274.075 198.028 274.075 198.753C274.075 199.75 273.741 200.544 273.072 201.133C272.403 201.711 271.434 202 270.165 202H265.388V189.998H270.08C271.281 189.998 272.199 190.27 272.834 190.814C273.48 191.347 273.803 192.083 273.803 193.024C273.803 193.783 273.605 194.401 273.208 194.877C272.811 195.342 272.29 195.653 271.644 195.812ZM267.326 195.166H269.723C270.403 195.166 270.919 195.007 271.27 194.69C271.633 194.373 271.814 193.931 271.814 193.364C271.814 192.809 271.633 192.372 271.27 192.055C270.919 191.738 270.38 191.579 269.655 191.579H267.326V195.166ZM269.774 200.402C270.511 200.402 271.077 200.238 271.474 199.909C271.882 199.569 272.086 199.099 272.086 198.498C272.086 197.897 271.882 197.427 271.474 197.087C271.066 196.747 270.494 196.577 269.757 196.577H267.326V200.402H269.774ZM285.043 192.633V202H283.088V199.96C282.85 200.651 282.436 201.19 281.847 201.575C281.258 201.949 280.572 202.136 279.79 202.136C278.702 202.136 277.829 201.785 277.172 201.082C276.515 200.379 276.186 199.376 276.186 198.073V192.633H278.124V197.869C278.124 198.719 278.339 199.376 278.77 199.841C279.201 200.294 279.79 200.521 280.538 200.521C281.309 200.521 281.926 200.272 282.391 199.773C282.856 199.274 283.088 198.549 283.088 197.597V192.633H285.043ZM292.583 200.317V202H291.393C290.396 202 289.636 201.762 289.115 201.286C288.605 200.799 288.35 199.994 288.35 198.872V194.282H287.007V192.633H288.35V190.304H290.305V192.633H292.566V194.282H290.305V198.906C290.305 199.439 290.401 199.807 290.594 200.011C290.798 200.215 291.149 200.317 291.648 200.317H292.583ZM299.617 200.317V202H298.427C297.43 202 296.671 201.762 296.149 201.286C295.639 200.799 295.384 199.994 295.384 198.872V194.282H294.041V192.633H295.384V190.304H297.339V192.633H299.6V194.282H297.339V198.906C297.339 199.439 297.436 199.807 297.628 200.011C297.832 200.215 298.184 200.317 298.682 200.317H299.617ZM306.227 192.514C307.133 192.514 307.949 192.707 308.675 193.092C309.4 193.477 309.967 194.033 310.375 194.758C310.783 195.483 310.987 196.333 310.987 197.308C310.987 198.294 310.783 199.15 310.375 199.875C309.967 200.6 309.4 201.156 308.675 201.541C307.949 201.926 307.133 202.119 306.227 202.119C305.32 202.119 304.504 201.926 303.779 201.541C303.065 201.156 302.498 200.6 302.079 199.875C301.671 199.138 301.467 198.283 301.467 197.308C301.467 196.333 301.671 195.483 302.079 194.758C302.498 194.033 303.065 193.477 303.779 193.092C304.504 192.707 305.32 192.514 306.227 192.514ZM306.227 194.197C305.728 194.197 305.269 194.31 304.85 194.537C304.43 194.764 304.09 195.115 303.83 195.591C303.58 196.056 303.456 196.628 303.456 197.308C303.456 197.999 303.58 198.577 303.83 199.042C304.09 199.507 304.43 199.852 304.85 200.079C305.269 200.306 305.728 200.419 306.227 200.419C306.725 200.419 307.184 200.306 307.604 200.079C308.023 199.852 308.357 199.507 308.607 199.042C308.867 198.577 308.998 197.999 308.998 197.308C308.998 196.628 308.867 196.056 308.607 195.591C308.357 195.115 308.023 194.764 307.604 194.537C307.184 194.31 306.725 194.197 306.227 194.197ZM318.596 192.48C319.684 192.48 320.557 192.831 321.214 193.534C321.871 194.237 322.2 195.24 322.2 196.543V202H320.262V196.747C320.262 195.908 320.047 195.262 319.616 194.809C319.185 194.344 318.596 194.112 317.848 194.112C317.077 194.112 316.46 194.361 315.995 194.86C315.53 195.347 315.298 196.067 315.298 197.019V202H313.36V192.633H315.298V194.69C315.547 193.987 315.967 193.443 316.556 193.058C317.145 192.673 317.825 192.48 318.596 192.48ZM328.053 192.514C329.153 192.514 330.031 192.797 330.688 193.364C331.357 193.919 331.765 194.667 331.912 195.608H330.076C329.997 195.098 329.776 194.69 329.413 194.384C329.062 194.067 328.592 193.908 328.002 193.908C327.515 193.908 327.135 194.027 326.863 194.265C326.603 194.492 326.472 194.803 326.472 195.2C326.472 195.495 326.569 195.733 326.761 195.914C326.954 196.095 327.192 196.237 327.475 196.339C327.77 196.441 328.184 196.554 328.716 196.679C329.419 196.838 329.986 197.002 330.416 197.172C330.858 197.342 331.232 197.614 331.538 197.988C331.856 198.351 332.014 198.849 332.014 199.484C332.014 200.266 331.714 200.901 331.113 201.388C330.524 201.875 329.725 202.119 328.716 202.119C327.549 202.119 326.603 201.847 325.877 201.303C325.163 200.759 324.733 200 324.585 199.025H326.472C326.529 199.535 326.756 199.949 327.152 200.266C327.549 200.583 328.07 200.742 328.716 200.742C329.181 200.742 329.544 200.623 329.804 200.385C330.076 200.136 330.212 199.824 330.212 199.45C330.212 199.121 330.11 198.861 329.906 198.668C329.702 198.475 329.447 198.328 329.141 198.226C328.835 198.113 328.416 197.999 327.883 197.886C327.203 197.727 326.648 197.569 326.217 197.41C325.798 197.251 325.435 196.996 325.129 196.645C324.835 196.282 324.687 195.795 324.687 195.183C324.687 194.39 324.982 193.749 325.571 193.262C326.172 192.763 326.999 192.514 328.053 192.514Z" fill="white"/>
</g>
<path d="M407 180C407 175.582 410.582 172 415 172H492C496.418 172 500 175.582 500 180V212C500 216.418 496.418 220 492 220H415C410.582 220 407 216.418 407 212V180Z" fill="#2230D2"/>
<path d="M426.644 195.812C427.369 195.959 427.953 196.305 428.395 196.849C428.848 197.393 429.075 198.028 429.075 198.753C429.075 199.75 428.741 200.544 428.072 201.133C427.403 201.711 426.434 202 425.165 202H420.388V189.998H425.08C426.281 189.998 427.199 190.27 427.834 190.814C428.48 191.347 428.803 192.083 428.803 193.024C428.803 193.783 428.605 194.401 428.208 194.877C427.811 195.342 427.29 195.653 426.644 195.812ZM422.326 195.166H424.723C425.403 195.166 425.919 195.007 426.27 194.69C426.633 194.373 426.814 193.931 426.814 193.364C426.814 192.809 426.633 192.372 426.27 192.055C425.919 191.738 425.38 191.579 424.655 191.579H422.326V195.166ZM424.774 200.402C425.511 200.402 426.077 200.238 426.474 199.909C426.882 199.569 427.086 199.099 427.086 198.498C427.086 197.897 426.882 197.427 426.474 197.087C426.066 196.747 425.494 196.577 424.757 196.577H422.326V200.402H424.774ZM440.043 192.633V202H438.088V199.96C437.85 200.651 437.436 201.19 436.847 201.575C436.258 201.949 435.572 202.136 434.79 202.136C433.702 202.136 432.829 201.785 432.172 201.082C431.515 200.379 431.186 199.376 431.186 198.073V192.633H433.124V197.869C433.124 198.719 433.339 199.376 433.77 199.841C434.201 200.294 434.79 200.521 435.538 200.521C436.309 200.521 436.926 200.272 437.391 199.773C437.856 199.274 438.088 198.549 438.088 197.597V192.633H440.043ZM447.583 200.317V202H446.393C445.396 202 444.636 201.762 444.115 201.286C443.605 200.799 443.35 199.994 443.35 198.872V194.282H442.007V192.633H443.35V190.304H445.305V192.633H447.566V194.282H445.305V198.906C445.305 199.439 445.401 199.807 445.594 200.011C445.798 200.215 446.149 200.317 446.648 200.317H447.583ZM454.617 200.317V202H453.427C452.43 202 451.671 201.762 451.149 201.286C450.639 200.799 450.384 199.994 450.384 198.872V194.282H449.041V192.633H450.384V190.304H452.339V192.633H454.6V194.282H452.339V198.906C452.339 199.439 452.436 199.807 452.628 200.011C452.832 200.215 453.184 200.317 453.682 200.317H454.617ZM461.227 192.514C462.133 192.514 462.949 192.707 463.675 193.092C464.4 193.477 464.967 194.033 465.375 194.758C465.783 195.483 465.987 196.333 465.987 197.308C465.987 198.294 465.783 199.15 465.375 199.875C464.967 200.6 464.4 201.156 463.675 201.541C462.949 201.926 462.133 202.119 461.227 202.119C460.32 202.119 459.504 201.926 458.779 201.541C458.065 201.156 457.498 200.6 457.079 199.875C456.671 199.138 456.467 198.283 456.467 197.308C456.467 196.333 456.671 195.483 457.079 194.758C457.498 194.033 458.065 193.477 458.779 193.092C459.504 192.707 460.32 192.514 461.227 192.514ZM461.227 194.197C460.728 194.197 460.269 194.31 459.85 194.537C459.43 194.764 459.09 195.115 458.83 195.591C458.58 196.056 458.456 196.628 458.456 197.308C458.456 197.999 458.58 198.577 458.83 199.042C459.09 199.507 459.43 199.852 459.85 200.079C460.269 200.306 460.728 200.419 461.227 200.419C461.725 200.419 462.184 200.306 462.604 200.079C463.023 199.852 463.357 199.507 463.607 199.042C463.867 198.577 463.998 197.999 463.998 197.308C463.998 196.628 463.867 196.056 463.607 195.591C463.357 195.115 463.023 194.764 462.604 194.537C462.184 194.31 461.725 194.197 461.227 194.197ZM473.596 192.48C474.684 192.48 475.557 192.831 476.214 193.534C476.871 194.237 477.2 195.24 477.2 196.543V202H475.262V196.747C475.262 195.908 475.047 195.262 474.616 194.809C474.185 194.344 473.596 194.112 472.848 194.112C472.077 194.112 471.46 194.361 470.995 194.86C470.53 195.347 470.298 196.067 470.298 197.019V202H468.36V192.633H470.298V194.69C470.547 193.987 470.967 193.443 471.556 193.058C472.145 192.673 472.825 192.48 473.596 192.48ZM483.053 192.514C484.153 192.514 485.031 192.797 485.688 193.364C486.357 193.919 486.765 194.667 486.912 195.608H485.076C484.997 195.098 484.776 194.69 484.413 194.384C484.062 194.067 483.592 193.908 483.002 193.908C482.515 193.908 482.135 194.027 481.863 194.265C481.603 194.492 481.472 194.803 481.472 195.2C481.472 195.495 481.569 195.733 481.761 195.914C481.954 196.095 482.192 196.237 482.475 196.339C482.77 196.441 483.184 196.554 483.716 196.679C484.419 196.838 484.986 197.002 485.416 197.172C485.858 197.342 486.232 197.614 486.538 197.988C486.856 198.351 487.014 198.849 487.014 199.484C487.014 200.266 486.714 200.901 486.113 201.388C485.524 201.875 484.725 202.119 483.716 202.119C482.549 202.119 481.603 201.847 480.877 201.303C480.163 200.759 479.733 200 479.585 199.025H481.472C481.529 199.535 481.756 199.949 482.152 200.266C482.549 200.583 483.07 200.742 483.716 200.742C484.181 200.742 484.544 200.623 484.804 200.385C485.076 200.136 485.212 199.824 485.212 199.45C485.212 199.121 485.11 198.861 484.906 198.668C484.702 198.475 484.447 198.328 484.141 198.226C483.835 198.113 483.416 197.999 482.883 197.886C482.203 197.727 481.648 197.569 481.217 197.41C480.798 197.251 480.435 196.996 480.129 196.645C479.835 196.282 479.687 195.795 479.687 195.183C479.687 194.39 479.982 193.749 480.571 193.262C481.172 192.763 481.999 192.514 483.053 192.514Z" fill="white"/>
<path d="M583.644 195.812C584.369 195.959 584.953 196.305 585.395 196.849C585.848 197.393 586.075 198.028 586.075 198.753C586.075 199.75 585.741 200.544 585.072 201.133C584.403 201.711 583.434 202 582.165 202H577.388V189.998H582.08C583.281 189.998 584.199 190.27 584.834 190.814C585.48 191.347 585.803 192.083 585.803 193.024C585.803 193.783 585.605 194.401 585.208 194.877C584.811 195.342 584.29 195.653 583.644 195.812ZM579.326 195.166H581.723C582.403 195.166 582.919 195.007 583.27 194.69C583.633 194.373 583.814 193.931 583.814 193.364C583.814 192.809 583.633 192.372 583.27 192.055C582.919 191.738 582.38 191.579 581.655 191.579H579.326V195.166ZM581.774 200.402C582.511 200.402 583.077 200.238 583.474 199.909C583.882 199.569 584.086 199.099 584.086 198.498C584.086 197.897 583.882 197.427 583.474 197.087C583.066 196.747 582.494 196.577 581.757 196.577H579.326V200.402H581.774ZM597.043 192.633V202H595.088V199.96C594.85 200.651 594.436 201.19 593.847 201.575C593.258 201.949 592.572 202.136 591.79 202.136C590.702 202.136 589.829 201.785 589.172 201.082C588.515 200.379 588.186 199.376 588.186 198.073V192.633H590.124V197.869C590.124 198.719 590.339 199.376 590.77 199.841C591.201 200.294 591.79 200.521 592.538 200.521C593.309 200.521 593.926 200.272 594.391 199.773C594.856 199.274 595.088 198.549 595.088 197.597V192.633H597.043ZM604.583 200.317V202H603.393C602.396 202 601.636 201.762 601.115 201.286C600.605 200.799 600.35 199.994 600.35 198.872V194.282H599.007V192.633H600.35V190.304H602.305V192.633H604.566V194.282H602.305V198.906C602.305 199.439 602.401 199.807 602.594 200.011C602.798 200.215 603.149 200.317 603.648 200.317H604.583ZM611.617 200.317V202H610.427C609.43 202 608.671 201.762 608.149 201.286C607.639 200.799 607.384 199.994 607.384 198.872V194.282H606.041V192.633H607.384V190.304H609.339V192.633H611.6V194.282H609.339V198.906C609.339 199.439 609.436 199.807 609.628 200.011C609.832 200.215 610.184 200.317 610.682 200.317H611.617ZM618.227 192.514C619.133 192.514 619.949 192.707 620.675 193.092C621.4 193.477 621.967 194.033 622.375 194.758C622.783 195.483 622.987 196.333 622.987 197.308C622.987 198.294 622.783 199.15 622.375 199.875C621.967 200.6 621.4 201.156 620.675 201.541C619.949 201.926 619.133 202.119 618.227 202.119C617.32 202.119 616.504 201.926 615.779 201.541C615.065 201.156 614.498 200.6 614.079 199.875C613.671 199.138 613.467 198.283 613.467 197.308C613.467 196.333 613.671 195.483 614.079 194.758C614.498 194.033 615.065 193.477 615.779 193.092C616.504 192.707 617.32 192.514 618.227 192.514ZM618.227 194.197C617.728 194.197 617.269 194.31 616.85 194.537C616.43 194.764 616.09 195.115 615.83 195.591C615.58 196.056 615.456 196.628 615.456 197.308C615.456 197.999 615.58 198.577 615.83 199.042C616.09 199.507 616.43 199.852 616.85 200.079C617.269 200.306 617.728 200.419 618.227 200.419C618.725 200.419 619.184 200.306 619.604 200.079C620.023 199.852 620.357 199.507 620.607 199.042C620.867 198.577 620.998 197.999 620.998 197.308C620.998 196.628 620.867 196.056 620.607 195.591C620.357 195.115 620.023 194.764 619.604 194.537C619.184 194.31 618.725 194.197 618.227 194.197ZM630.596 192.48C631.684 192.48 632.557 192.831 633.214 193.534C633.871 194.237 634.2 195.24 634.2 196.543V202H632.262V196.747C632.262 195.908 632.047 195.262 631.616 194.809C631.185 194.344 630.596 194.112 629.848 194.112C629.077 194.112 628.46 194.361 627.995 194.86C627.53 195.347 627.298 196.067 627.298 197.019V202H625.36V192.633H627.298V194.69C627.547 193.987 627.967 193.443 628.556 193.058C629.145 192.673 629.825 192.48 630.596 192.48ZM640.053 192.514C641.153 192.514 642.031 192.797 642.688 193.364C643.357 193.919 643.765 194.667 643.912 195.608H642.076C641.997 195.098 641.776 194.69 641.413 194.384C641.062 194.067 640.592 193.908 640.002 193.908C639.515 193.908 639.135 194.027 638.863 194.265C638.603 194.492 638.472 194.803 638.472 195.2C638.472 195.495 638.569 195.733 638.761 195.914C638.954 196.095 639.192 196.237 639.475 196.339C639.77 196.441 640.184 196.554 640.716 196.679C641.419 196.838 641.986 197.002 642.416 197.172C642.858 197.342 643.232 197.614 643.538 197.988C643.856 198.351 644.014 198.849 644.014 199.484C644.014 200.266 643.714 200.901 643.113 201.388C642.524 201.875 641.725 202.119 640.716 202.119C639.549 202.119 638.603 201.847 637.877 201.303C637.163 200.759 636.733 200 636.585 199.025H638.472C638.529 199.535 638.756 199.949 639.152 200.266C639.549 200.583 640.07 200.742 640.716 200.742C641.181 200.742 641.544 200.623 641.804 200.385C642.076 200.136 642.212 199.824 642.212 199.45C642.212 199.121 642.11 198.861 641.906 198.668C641.702 198.475 641.447 198.328 641.141 198.226C640.835 198.113 640.416 197.999 639.883 197.886C639.203 197.727 638.648 197.569 638.217 197.41C637.798 197.251 637.435 196.996 637.129 196.645C636.835 196.282 636.687 195.795 636.687 195.183C636.687 194.39 636.982 193.749 637.571 193.262C638.172 192.763 638.999 192.514 640.053 192.514Z" fill="#5E6C84"/>
<path d="M572 173H649V171H572V173ZM656 180V212H658V180H656ZM649 219H572V221H649V219ZM565 212V180H563V212H565ZM572 219C568.134 219 565 215.866 565 212H563C563 216.971 567.029 221 572 221V219ZM656 212C656 215.866 652.866 219 649 219V221C653.971 221 658 216.971 658 212H656ZM649 173C652.866 173 656 176.134 656 180H658C658 175.029 653.971 171 649 171V173ZM572 171C567.029 171 563 175.029 563 180H565C565 176.134 568.134 173 572 173V171Z" fill="#C1C7D0"/>
<defs>
<filter id="filter0_d_37_2238" x="236" y="164" width="125" height="80" filterUnits="userSpaceOnUse" color-interpolation-filters="sRGB">
<feFlood flood-opacity="0" result="BackgroundImageFix"/>
<feColorMatrix in="SourceAlpha" type="matrix" values="0 0 0 0 0 0 0 0 0 0 0 0 0 0 0 0 0 0 127 0" result="hardAlpha"/>
<feOffset dy="8"/>
<feGaussianBlur stdDeviation="8"/>
<feColorMatrix type="matrix" values="0 0 0 0 0.25098 0 0 0 0 0.32549 0 0 0 0 0.988235 0 0 0 0.24 0"/>
<feBlend mode="normal" in2="BackgroundImageFix" result="effect1_dropShadow_37_2238"/>
<feBlend mode="normal" in="SourceGraphic" in2="effect1_dropShadow_37_2238" result="shape"/>
</filter>
</defs>
</svg>
